<?xml version="1.0" encoding="UTF-8"?>
<!DOCTYPE svg PUBLIC "-//W3C//DTD SVG 1.1//EN" "http://www.w3.org/Graphics/SVG/1.1/DTD/svg11.dtd">
<!-- Creator: CorelDRAW 2019 (64 Bit) -->
<svg xmlns="http://www.w3.org/2000/svg" xml:space="preserve" width="210mm" height="297mm" version="1.1" style="shape-rendering:geometricPrecision; text-rendering:geometricPrecision; image-rendering:optimizeQuality; fill-rule:evenodd; clip-rule:evenodd"
viewBox="0 0 21000 29700"
 xmlns:xlink="http://www.w3.org/1999/xlink"
 xmlns:xodm="http://www.corel.com/coreldraw/odm/2003">
 <defs>
  <style type="text/css">
   <![CDATA[
    .fil0 {fill:#FEFEFE;fill-rule:nonzero}
   ]]>
  </style>
 </defs>
 <g id="Camada_x0020_1">
  <metadata id="CorelCorpID_0Corel-Layer"/>
  <path class="fil0" d="M780.36 4013.03l-16499.99 0c-1242.42,0 -2249.99,1007.57 -2249.99,2250l0 16499.99c0,1242.42 1007.57,2249.99 2250,2249.99l6433.58 0.01 0 -7139.53 -2953.12 0 0 -3360.47 2953.12 0 0 -2561.24c0,-2913.28 1734.38,-4522.5 4390.77,-4522.5 1272.19,0 2602.5,226.88 2602.5,226.88l0 2859.38 -1465.78 -0.01c-1444.22,0 -1894.69,896.25 -1894.69,1815.47l0.01 2182.02 3224.06 0 -515.63 3360.47 -2708.43 0 0 7139.53 6433.59 0c1242.43,-0.01 2250,-1007.58 2250,-2250.01l0 -16499.98c0,-1242.43 -1007.57,-2250 -2250,-2250z"/>
 </g>
</svg>
