<?xml version="1.0" encoding="UTF-8"?>
<!DOCTYPE svg PUBLIC "-//W3C//DTD SVG 1.1//EN" "http://www.w3.org/Graphics/SVG/1.1/DTD/svg11.dtd">
<!-- Creator: CorelDRAW 2019 (64 Bit) -->
<svg xmlns="http://www.w3.org/2000/svg" xml:space="preserve" width="210mm" height="297mm" version="1.1" style="shape-rendering:geometricPrecision; text-rendering:geometricPrecision; image-rendering:optimizeQuality; fill-rule:evenodd; clip-rule:evenodd"
viewBox="0 0 21000 29700"
 xmlns:xlink="http://www.w3.org/1999/xlink"
 xmlns:xodm="http://www.corel.com/coreldraw/odm/2003">
 <defs>
  <style type="text/css">
   <![CDATA[
    .fil0 {fill:#FEFEFE;fill-rule:nonzero}
   ]]>
  </style>
 </defs>
 <g id="Camada_x0020_1">
  <metadata id="CorelCorpID_0Corel-Layer"/>
  <path class="fil0" d="M-5817.29 10852.09c-2981.24,0 -5385.93,2404.69 -5385.93,5385.93 0,2981.25 2404.69,5385.94 5385.93,5385.94 2981.25,0 5385.94,-2404.69 5385.94,-5385.94 0,-2981.24 -2404.69,-5385.93 -5385.94,-5385.93zm0 8887.5c-1926.55,0 -3501.55,-1570.31 -3501.55,-3501.56 0,-1931.24 1570.31,-3501.55 3501.55,-3501.55 1931.25,0 3501.56,1570.31 3501.56,3501.55 0,1931.25 -1575,3501.56 -3501.56,3501.56zm6862.5 -9107.81c0,698.44 -562.5,1256.25 -1256.25,1256.25 -698.44,0 -1256.25,-562.5 -1256.25,-1256.25 0,-693.75 562.5,-1256.25 1256.25,-1256.25 693.75,0 1256.25,562.5 1256.25,1256.25zm3567.19 1275c-79.69,-1682.81 -464.06,-3173.44 -1696.88,-4401.56 -1228.13,-1228.13 -2718.75,-1612.5 -4401.56,-1696.88 -1734.38,-98.44 -6932.8,-98.44 -8667.18,0 -1678.13,79.69 -3168.75,464.06 -4401.56,1692.19 -1232.81,1228.13 -1612.5,2718.75 -1696.88,4401.56 -98.44,1734.38 -98.44,6932.8 0,8667.18 79.69,1682.81 464.06,3173.44 1696.88,4401.56 1232.82,1228.12 2718.75,1612.5 4401.56,1696.88 1734.38,98.44 6932.8,98.44 8667.18,0 1682.81,-79.69 3173.44,-464.06 4401.56,-1696.88 1228.13,-1228.13 1612.5,-2718.75 1696.88,-4401.56 98.44,-1734.38 98.44,-6928.12 0,-8662.49zm-2240.63 10523.43c-365.63,918.75 -1073.44,1626.56 -1996.88,1996.88 -1382.81,548.44 -4664.06,421.88 -6192.19,421.88 -1528.12,0 -4814.05,121.88 -6192.18,-421.88 -918.75,-365.63 -1626.56,-1073.44 -1996.88,-1996.88 -548.44,-1382.81 -421.88,-4664.06 -421.88,-6192.19 0,-1528.12 -121.88,-4814.05 421.88,-6192.18 365.63,-918.75 1073.44,-1626.56 1996.88,-1996.88 1382.81,-548.44 4664.06,-421.88 6192.18,-421.88 1528.13,0 4814.06,-121.88 6192.19,421.88 918.75,365.63 1626.56,1073.44 1996.88,1996.88 548.44,1382.81 421.88,4664.06 421.88,6192.18 0,1528.13 126.56,4814.06 -421.88,6192.19z"/>
 </g>
</svg>
