<?xml version="1.0" encoding="UTF-8"?>
<!DOCTYPE svg PUBLIC "-//W3C//DTD SVG 1.1//EN" "http://www.w3.org/Graphics/SVG/1.1/DTD/svg11.dtd">
<!-- Creator: CorelDRAW 2019 (64 Bit) -->
<svg xmlns="http://www.w3.org/2000/svg" xml:space="preserve" width="210mm" height="297mm" version="1.1" style="shape-rendering:geometricPrecision; text-rendering:geometricPrecision; image-rendering:optimizeQuality; fill-rule:evenodd; clip-rule:evenodd"
viewBox="0 0 21000 29700"
 xmlns:xlink="http://www.w3.org/1999/xlink"
 xmlns:xodm="http://www.corel.com/coreldraw/odm/2003">
 <defs>
  <style type="text/css">
   <![CDATA[
    .fil0 {fill:#FEFEFE;fill-rule:nonzero}
   ]]>
  </style>
 </defs>
 <g id="Camada_x0020_1">
  <metadata id="CorelCorpID_0Corel-Layer"/>
  <path class="fil0" d="M-1182.31 2772.24l-4265.63 -984.38c-463.48,-106.64 -939.26,135.35 -1127.93,570.12l-1968.75 4593.75c-172.27,401.95 -57.42,873.63 283.01,1148.44l2485.55 2034.38c-1476.56,3145.89 -4056.45,5762.69 -7267.96,7267.96l-2034.38 -2485.55c-278.91,-340.43 -746.48,-455.27 -1148.44,-283.01l-4593.75 1968.75c-438.86,192.78 -680.85,668.56 -574.21,1132.03l984.38 4265.63c102.53,442.97 496.28,762.89 959.76,762.89 10504.09,0 19031.24,-8510.74 19031.24,-19031.24 0,-459.38 -315.82,-857.23 -762.89,-959.77z"/>
 </g>
</svg>
