<?xml version="1.0" encoding="UTF-8"?>
<!DOCTYPE svg PUBLIC "-//W3C//DTD SVG 1.1//EN" "http://www.w3.org/Graphics/SVG/1.1/DTD/svg11.dtd">
<!-- Creator: CorelDRAW 2019 (64 Bit) -->
<svg xmlns="http://www.w3.org/2000/svg" xml:space="preserve" width="210mm" height="297mm" version="1.1" style="shape-rendering:geometricPrecision; text-rendering:geometricPrecision; image-rendering:optimizeQuality; fill-rule:evenodd; clip-rule:evenodd"
viewBox="0 0 21000 29700"
 xmlns:xlink="http://www.w3.org/1999/xlink"
 xmlns:xodm="http://www.corel.com/coreldraw/odm/2003">
 <defs>
  <style type="text/css">
   <![CDATA[
    .fil0 {fill:#FEFEFE;fill-rule:nonzero}
   ]]>
  </style>
 </defs>
 <g id="Camada_x0020_1">
  <metadata id="CorelCorpID_0Corel-Layer"/>
  <path class="fil0" d="M1235.06 6539.59c-1964.06,-1968.75 -4579.69,-3051.56 -7359.38,-3051.56 -5737.5,0 -10406.25,4668.75 -10406.25,10406.25 0,1832.81 478.13,3623.44 1387.5,5203.13l-1476.56 5390.62 5517.19 -1448.44c1518.75,829.69 3229.69,1265.63 4973.44,1265.63l4.68 0c5732.81,0 10504.69,-4668.75 10504.69,-10406.25 0,-2779.69 -1181.25,-5390.63 -3145.31,-7359.38zm-7359.38 16012.5c-1556.25,0 -3079.69,-417.19 -4406.25,-1204.69l-314.06 -187.5 -3271.88 857.81 871.88 -3192.18 -206.25 -328.13c-867.19,-1378.13 -1321.88,-2967.19 -1321.88,-4603.13 0,-4767.19 3881.25,-8648.44 8653.13,-8648.44 2310.94,0 4481.25,900 6112.5,2535.94 1631.25,1635.94 2634.38,3806.25 2629.69,6117.19 0,4771.88 -3979.69,8653.13 -8746.88,8653.13zm4743.75 -6478.12c-257.81,-131.25 -1537.5,-759.38 -1776.56,-843.75 -239.06,-89.06 -412.5,-131.25 -585.94,131.25 -173.44,262.5 -670.31,843.75 -825,1021.88 -150,173.44 -304.69,196.88 -562.5,65.63 -1528.13,-764.06 -2531.25,-1364.06 -3539.06,-3093.75 -267.19,-459.38 267.19,-426.56 764.06,-1420.31 84.38,-173.44 42.19,-323.44 -23.44,-454.69 -65.63,-131.25 -585.94,-1410.94 -801.56,-1931.25 -210.94,-506.25 -426.56,-435.94 -585.94,-445.31 -150,-9.38 -323.44,-9.38 -496.88,-9.38 -173.44,0 -454.69,65.63 -693.75,323.44 -239.06,262.5 -909.38,890.63 -909.38,2170.31 0,1279.69 932.81,2517.19 1059.38,2690.63 131.25,173.44 1832.81,2798.44 4443.75,3928.13 1650,712.5 2296.88,773.44 3121.88,651.56 501.56,-75 1537.5,-628.13 1753.13,-1237.5 215.63,-609.38 215.63,-1129.69 150,-1237.5 -60.94,-117.19 -234.38,-182.81 -492.19,-309.38l0 -0.01z"/>
 </g>
</svg>
